<svg width="284" height="284" viewBox="0 0 284 284" fill="none" xmlns="http://www.w3.org/2000/svg">
<rect x="7.64971" y="142" width="190" height="190" transform="rotate(-45 7.64971 142)" stroke="white" stroke-width="15"/>
<line x1="105.232" y1="175.943" x2="175.943" y2="105.232" stroke="white" stroke-width="10"/>
<path d="M126.91 92.65C129.01 92.65 130.76 92.58 132.16 92.44V93.84C131.227 94.0733 130.317 94.68 129.43 95.66C128.543 96.5933 127.587 98.0633 126.56 100.07L115.57 121.84V134.58C115.57 136.353 115.71 137.637 115.99 138.43C116.27 139.223 116.783 139.76 117.53 140.04C118.323 140.32 119.56 140.507 121.24 140.6V142C119.093 141.86 116.13 141.79 112.35 141.79C108.337 141.79 105.35 141.86 103.39 142V140.6C105.07 140.507 106.283 140.32 107.03 140.04C107.823 139.76 108.36 139.223 108.64 138.43C108.92 137.637 109.06 136.353 109.06 134.58V124.08L94.85 97.83C94.01 96.29 93.2633 95.2633 92.61 94.75C92.0033 94.19 91.3967 93.91 90.79 93.91V92.44C92.61 92.58 94.6633 92.65 96.95 92.65C101.477 92.65 104.743 92.58 106.75 92.44V93.91C103.483 93.91 101.85 94.7967 101.85 96.57C101.85 97.27 102.083 98.0867 102.55 99.02L114.17 121.35L123.13 103.57C124.39 101.097 125.02 99.09 125.02 97.55C125.02 96.2433 124.507 95.31 123.48 94.75C122.453 94.19 120.913 93.8867 118.86 93.84V92.44C121.52 92.58 124.203 92.65 126.91 92.65Z" fill="white"/>
<path d="M172.97 143.46C177.403 143.46 181.277 144.463 184.59 146.47C187.95 148.477 190.54 151.393 192.36 155.22C194.227 159 195.16 163.527 195.16 168.8C195.16 173.933 194.203 178.483 192.29 182.45C190.423 186.417 187.787 189.497 184.38 191.69C181.02 193.883 177.193 194.98 172.9 194.98C168.467 194.98 164.57 193.977 161.21 191.97C157.897 189.963 155.307 187.07 153.44 183.29C151.62 179.463 150.71 174.913 150.71 169.64C150.71 164.507 151.643 159.957 153.51 155.99C155.423 152.023 158.06 148.943 161.42 146.75C164.827 144.557 168.677 143.46 172.97 143.46ZM172.69 144.72C169.703 144.72 167.067 145.77 164.78 147.87C162.54 149.923 160.79 152.817 159.53 156.55C158.317 160.283 157.71 164.553 157.71 169.36C157.71 174.213 158.387 178.483 159.74 182.17C161.14 185.857 163.007 188.703 165.34 190.71C167.673 192.717 170.287 193.72 173.18 193.72C176.167 193.72 178.78 192.693 181.02 190.64C183.307 188.54 185.057 185.623 186.27 181.89C187.53 178.157 188.16 173.887 188.16 169.08C188.16 164.227 187.46 159.957 186.06 156.27C184.707 152.583 182.863 149.737 180.53 147.73C178.197 145.723 175.583 144.72 172.69 144.72Z" fill="white"/>
</svg>
